# xmcd
# 
# Track frame offsets:
#     182
#     13762
#     25977
#     37170
#     52280
#     63360
#     75370
#     88605
#     102302
#     115785
#     125332
#     139402
#     149612
#     161075
# 
# Disc length: 2312
# 
# Revision: 1
# Processed by: cddbd v1.5.2PL0 Copyright (c) Steve Scherf et al.
# Submitted via: fre:ac v1.0.31
# 
DISCID=c809060e
DTITLE=Roots of rhythm - make me yours
DYEAR=2000
DGENRE=R&B
TTITLE0=Frankie Lymon and the Teenagers/I Want You to be My Girl
TTITLE1=The Dell-Vikings/Come Go With Me
TTITLE2=Chuck Willis/What Am I Living For
TTITLE3=Aretha Franklin/Share Your Love With Me
TTITLE4=The Marvelows/I Do
TTITLE5=Brook Benton/Kiddio
TTITLE6=Ruth Brown/Oh What a Dream
TTITLE7=Billy Stewart/I Do Love You
TTITLE8=Bettye Swann/Make Me Yours
TTITLE9=Roscoe Gordon/Just A Little Bit
TTITLE10=Barbara Mason/Yes, I'm Ready
TTITLE11=The Hollywood Flames/Buzz-Buzz-Buzz
TTITLE12=Barbara Lewis/Baby, I'm Yours
TTITLE13=James Brown and the Famous Flames/Please, Please, Please
EXTD=
EXTT0=
EXTT1=
EXTT2=
EXTT3=
EXTT4=
EXTT5=
EXTT6=
EXTT7=
EXTT8=
EXTT9=
EXTT10=
EXTT11=
EXTT12=
EXTT13=
PLAYORDER=
